<?xml version="1.0" encoding="UTF-8" standalone="no"?>
<!DOCTYPE svg PUBLIC "-//W3C//DTD SVG 1.1//EN"
 "http://www.w3.org/Graphics/SVG/1.1/DTD/svg11.dtd">
<!-- Generated by graphviz version 2.36.0 (20140111.2315)
 -->
<!-- Title: G Pages: 1 -->
<svg width="94pt" height="95pt"
 viewBox="0.00 0.00 94.00 95.00" xmlns="http://www.w3.org/2000/svg" xmlns:xlink="http://www.w3.org/1999/xlink">
<g id="graph0" class="graph" transform="scale(1 1) rotate(0) translate(4 91)">
<title>G</title>
<polygon fill="white" stroke="none" points="-4,4 -4,-91 90,-91 90,4 -4,4"/>
<g id="clust1" class="cluster"><title>cluster_Global</title>
<path fill="none" stroke="gray" d="M20,-8C20,-8 66,-8 66,-8 72,-8 78,-14 78,-20 78,-20 78,-67 78,-67 78,-73 72,-79 66,-79 66,-79 20,-79 20,-79 14,-79 8,-73 8,-67 8,-67 8,-20 8,-20 8,-14 14,-8 20,-8"/>
<text text-anchor="middle" x="43" y="-66.2" font-family="Times,serif" font-size="11.00" fill="gray">Global</text>
</g>
<!-- \\Miner -->
<g id="node1" class="node"><title>\\Miner</title>
<polygon fill="none" stroke="black" points="70,-52 16,-52 16,-16 70,-16 70,-52"/>
<text text-anchor="middle" x="43" y="-30.7" font-family="Times,serif" font-size="11.00">Miner</text>
</g>
</g>
</svg>
